<?xml version="1.0" encoding="utf-8"?>
<!-- Generator: Adobe Illustrator 16.0.0, SVG Export Plug-In . SVG Version: 6.00 Build 0)  -->
<!DOCTYPE svg PUBLIC "-//W3C//DTD SVG 1.1 Basic//EN" "http://www.w3.org/Graphics/SVG/1.1/DTD/svg11-basic.dtd">
<svg version="1.1" baseProfile="basic" id="Layer_1"
	 xmlns="http://www.w3.org/2000/svg" xmlns:xlink="http://www.w3.org/1999/xlink" x="0px" y="0px"  
	 viewBox="0 0 1000 1000" xml:space="preserve">
<g>
	<rect x="483.188" y="94.834" fill="#E31837" width="155.368" height="45.339"/>
	<path fill="#E31837" d="M625.542,860.214c-148.023-37.679-257.133-163.643-257.133-325.106
		c0-123.738,72.307-223.758,179.156-279.857v-60.791C394.016,244.728,283.899,374.56,283.899,535.107
		c0,79.392,20.704,141.412,56.757,196.978c-94.927-16.687-135.861-82.934-135.861-196.978V94.585h-0.097H34.396v45.357h81.448
		v395.165c0,158.316,103.188,240.53,260.274,243.132c60.091,66.797,145.087,113.407,241.682,127.176L625.542,860.214z"/>
	<path fill="#E31837" d="M547.519,535.096c0,62.219,6.191,111.383,45.435,154.695c35.688-43.87,45.747-84.984,45.747-154.695
		l-0.343-358.32c16.622-1.995,33.531-3.018,50.687-3.018c69.969,0,140.406,7.667,224.334,49.889l5.688-34.017l46.538,9.039
		l-27.387,159.473l-39.087-7.675c-3.399-71.64-66.427-134.148-171.485-134.148v318.777c0,92.944-31.666,152.226-94.406,198.519
		c74.213,69.464,195.683,62.367,255.521,31.821l11.179,16.7c-44.33,30.168-105.081,43.025-157.757,43.025
		c-153.484,0-279.264-127.183-279.264-290.065c0-77.845,32.565-140.438,84.648-190.813
		C547.565,344.282,547.519,501.958,547.519,535.096"/>
</g>
</svg>
